# xmcd
#
# Track frame offsets: 
#        150
#        22010
#        41627
#        59751
#        84200
#        105996
#        122534
#        140739
#        161033
#        175829
#        191687
#        208381
#        229119
#        246642
#        259495
#        274751
#        297504
#
# Disc length: 4261 seconds
#
# Revision: 0
# Processed by: cddbd v1.5.2PL0 Copyright (c) Steve Scherf et al.
# Submitted via: ExactAudioCopy v0.95b3
#
DISCID=0c10a311
DTITLE=Sektion Kuchikäschtli - Affatanz
DYEAR=2007
DGENRE=Hip-Hop
TTITLE0=Intro (feat. Samir)
TTITLE1=Wichtig
TTITLE2=Meh Verdiant (feat. Martin Luther)
TTITLE3=Guati Musik (feat. Martin Luther)
TTITLE4=Minderjährig (feat. Baze und Gimma)
TTITLE5=Solidarität
TTITLE6=Gnuag
TTITLE7=Bad Situation (feat. Smoovefella and Ras Charmer)
TTITLE8=Männlich
TTITLE9=Mini Meinig
TTITLE10=Checksch dia Ironie?
TTITLE11=Crazy in Love (feat. Vali)
TTITLE12=Boia dè!
TTITLE13=Trichter
TTITLE14=Alles Gsait (feat. Luut and Tüütli)
TTITLE15=Passendi Wort (feat. Holunder)
TTITLE16=Honig und Milch
EXTD=
EXTT0=
EXTT1=
EXTT2=
EXTT3=
EXTT4=
EXTT5=
EXTT6=
EXTT7=
EXTT8=
EXTT9=
EXTT10=
EXTT11=
EXTT12=
EXTT13=
EXTT14=
EXTT15=
EXTT16=
PLAYORDER=
